<svg width="863" height="87" viewBox="0 0 863 87" fill="none" xmlns="http://www.w3.org/2000/svg">
<path fill-rule="evenodd" clip-rule="evenodd" d="M0 64.07C0 63.4911 0.470808 63.0266 1.04956 63.0382C6.60264 63.149 33.5124 62.5706 65.5 43C101.458 21 143.833 0 215.75 0C287.667 0 359.583 43 431.5 52C503.417 61 575.333 14 647.25 22C719.167 31 814.542 56 830.5 61.5C844.703 66.3951 859.368 70.102 862.422 70.8582C862.767 70.9436 863 71.2504 863 71.6058V86.5C863 86.7761 862.776 87 862.5 87V87H827.042C791.083 87 719.167 87 647.25 87C575.333 87 503.417 87 431.5 87C359.583 87 287.667 87 215.75 87C144.461 87 37.8397 87 0.958425 87C0.406141 87 0 86.5523 0 86V64.07Z" fill="#748BC8"/>
</svg>
