<svg width="864" height="125" viewBox="0 0 864 125" fill="none" xmlns="http://www.w3.org/2000/svg">
<path fill-rule="evenodd" clip-rule="evenodd" d="M0 33.8676L48.0556 50.8851C96.1112 67.9025 192.222 102.938 288.334 89.9251C384.445 76.9117 479.555 15.8491 575.666 2.8358C671.778 -10.1775 767.889 24.8584 815.944 41.8758L864 58.8933V122.5C864 123.881 862.881 125 861.5 125V125C813.444 125 671.778 125 575.666 125C479.555 125 384.445 125 288.334 125C192.222 125 96.1112 125 48.0556 125H1.5V125C0.671573 125 0 124.328 0 123.5V33.8676Z" fill="#748BC8"/>
</svg>
