<svg width="156" height="24" viewBox="0 0 156 24" fill="none" xmlns="http://www.w3.org/2000/svg">
<path d="M149.566 23.8256V0H156V23.8256H149.566Z" fill="#4D6194"/>
<path d="M52.8771 0L58.9641 16.5427L65.5539 0H72.2305L62.6579 23.8256H55.5131L49.2874 7.80314L43.079 23.8256H35.9342L26.3442 0H33.0382L39.4893 16.1959L45.715 0H52.8771Z" fill="#4D6194"/>
<path d="M106.119 23.8256L90.0431 7.45633V23.8256H83.6093V0H90.598L106.691 16.4386V0H113.09V23.8256H106.119Z" fill="#4D6194"/>
<path d="M74.5671 23.8256V0H81.0009V23.8256H74.5671Z" fill="#4D6194"/>
<mask id="mask0_319_248" style="mask-type:alpha" maskUnits="userSpaceOnUse" x="0" y="0" width="28" height="24">
<path d="M27.1745 17.2536C27.1745 18.1784 27.0531 18.9819 26.8103 19.6639C26.5676 20.346 26.2265 20.9355 25.7872 21.4326C25.3594 21.9182 24.8392 22.317 24.2264 22.6291C23.6252 22.9297 22.9547 23.1724 22.2148 23.3574C21.4864 23.5308 20.706 23.6522 19.8736 23.7215C19.0412 23.7909 18.1799 23.8256 17.2897 23.8256H0V0H16.9776C17.6597 0 18.3418 0.0289005 19.0239 0.0867016C19.7176 0.144503 20.3765 0.254325 21.0009 0.416167C21.6252 0.56645 22.2032 0.780314 22.735 1.05776C23.2784 1.3352 23.7466 1.69935 24.1397 2.1502C24.5443 2.60105 24.8565 3.14438 25.0762 3.78019C25.3074 4.416 25.423 5.16741 25.423 6.03443C25.423 7.5835 25.0415 8.81466 24.2784 9.72791C23.5154 10.6296 22.313 11.2307 20.6714 11.5313C21.8275 11.6122 22.816 11.7914 23.6368 12.0689C24.4692 12.3347 25.1455 12.7047 25.6658 13.1786C26.186 13.641 26.5676 14.2133 26.8103 14.8953C27.0531 15.5658 27.1745 16.3519 27.1745 17.2536Z" fill="#262626"/>
</mask>
<g mask="url(#mask0_319_248)">
<path d="M27.1745 17.2536C27.1745 18.1784 27.0531 18.9819 26.8103 19.6639C26.5676 20.346 26.2265 20.9355 25.7872 21.4326C25.3594 21.9182 24.8392 22.317 24.2264 22.6291C23.6252 22.9297 22.9547 23.1724 22.2148 23.3574C21.4864 23.5308 20.706 23.6522 19.8736 23.7215C19.0412 23.7909 18.1799 23.8256 17.2897 23.8256H0V0H16.9776C17.6597 0 18.3418 0.0289005 19.0239 0.0867016C19.7176 0.144503 20.3765 0.254325 21.0009 0.416167C21.6252 0.56645 22.2032 0.780314 22.735 1.05776C23.2784 1.3352 23.7466 1.69935 24.1397 2.1502C24.5443 2.60105 24.8565 3.14438 25.0762 3.78019C25.3074 4.416 25.423 5.16741 25.423 6.03443C25.423 7.5835 25.0415 8.81466 24.2784 9.72791C23.5154 10.6296 22.313 11.2307 20.6714 11.5313C21.8275 11.6122 22.816 11.7914 23.6368 12.0689C24.4692 12.3347 25.1455 12.7047 25.6658 13.1786C26.186 13.641 26.5676 14.2133 26.8103 14.8953C27.0531 15.5658 27.1745 16.3519 27.1745 17.2536Z" fill="#1A2332"/>
<mask id="mask1_319_248" style="mask-type:alpha" maskUnits="userSpaceOnUse" x="-19" y="-11" width="41" height="38">
<path d="M17.3978 4.02087C17.6355 5.01948 18.1784 6.24396 18.4202 6.73137C18.4202 7.38523 18.123 7.69431 17.7663 8.0153C17.4097 8.33628 16.3397 8.49082 15.995 9.37054C15.7192 10.0743 16.1099 11.0349 16.3397 11.4272C16.9864 11.7125 17.3463 12.2039 17.4453 12.4139C17.7402 12.975 17.7822 13.8524 17.7663 14.2209C18.2989 15.4668 18.2101 17.2762 18.0992 18.0251C18.012 18.1321 17.859 18.358 17.9446 18.4055C18.0302 18.4531 18.1784 18.6473 18.2418 18.7384L18.9432 19.1545C19.8277 20.2102 20.6432 23.9137 20.9404 25.6335H-18.2429C-18.1637 24.9084 -17.9671 23.1917 -17.8149 22.1265C-17.6247 20.7951 -16.5905 18.2034 -16.4003 17.7398C-16.21 17.2762 -13.6541 12.6755 -13.3688 12.0216C-13.1405 11.4985 -12.1403 9.28337 -11.6688 8.24117C-10.8921 5.87146 -9.02722 0.723099 -7.78134 -0.912712C-6.22399 -2.95748 -7.59113 -2.11341 -1.67083 -6.83301C4.24947 -11.5526 10.2411 -9.03232 10.788 -7.62952C11.2254 -6.50728 12.4919 -4.5703 13.0705 -3.74209C16.3278 -0.223197 17.1006 2.77262 17.3978 4.02087Z" fill="#C4C4C4" stroke="black"/>
</mask>
<g mask="url(#mask1_319_248)">
<path d="M17.3978 4.02087C17.6355 5.01948 18.1784 6.24396 18.4202 6.73137C18.4202 7.38523 18.123 7.69431 17.7663 8.0153C17.4097 8.33628 16.3397 8.49082 15.995 9.37054C15.7192 10.0743 16.1099 11.0349 16.3397 11.4272C16.9864 11.7125 17.3463 12.2039 17.4453 12.4139C17.7402 12.975 17.7822 13.8524 17.7663 14.2209C18.2989 15.4668 18.2101 17.2762 18.0992 18.0251C18.012 18.1321 17.859 18.358 17.9446 18.4055C18.0302 18.4531 18.1784 18.6473 18.2418 18.7384C15.1024 21.0876 13.5103 21.1727 12.5355 21.7909L12.5461 21.8035C13.4272 22.8551 14.3199 23.9206 14.6159 25.6335H-18.2429C-18.1637 24.9084 -17.9671 23.1917 -17.8149 22.1265C-17.6247 20.7951 -16.5905 18.2034 -16.4003 17.7398C-16.21 17.2762 -13.6541 12.6755 -13.3688 12.0216C-13.1405 11.4985 -12.1403 9.28337 -11.6688 8.24117C-10.8921 5.87146 -9.02722 0.723099 -7.78134 -0.912712C-6.22399 -2.95748 -7.59113 -2.11341 -1.67083 -6.83301C4.24947 -11.5526 10.2411 -9.03232 10.788 -7.62952C11.2254 -6.50728 12.4919 -4.5703 13.0705 -3.74209C16.3278 -0.223197 17.1006 2.77262 17.3978 4.02087Z" fill="#1A2332"/>
<path d="M17.3977 4.02083C17.6355 5.01944 18.1784 6.24392 18.4201 6.73133C18.4201 7.38519 18.1229 7.69427 17.7662 8.01525C17.4096 8.33624 16.3397 8.49078 15.9949 9.3705C15.7191 10.0743 16.1098 11.0348 16.3397 11.4272C16.9864 11.7125 17.3462 12.2038 17.4453 12.4139C17.7401 12.975 17.7821 13.8523 17.7662 14.2209C18.2988 15.4668 18.2101 17.2761 18.0991 18.0251C18.0119 18.1321 17.859 18.358 17.9446 18.4055C18.0302 18.4531 18.1784 18.6472 18.2418 18.7384C18.2418 18.7384 18.2893 18.9761 18.1942 19.1426C18.0991 19.309 17.9446 19.309 17.9446 19.309C16.6725 19.8083 17.1956 20.3433 14.0571 21.437L10.1697 22.4713C8.0536 22.4713 6.15152 20.3433 5.40254 18.7384C4.26753 16.3063 2.84839 14.7542 1.02774 12.9964C0.076684 12.0782 -2.49119 10.7824 -3.73942 10.488C-5.87052 9.98539 -11.6688 11.1985 -13.9038 13.0649C-13.9038 13.0649 -11.9012 8.75474 -11.6688 8.24113C-10.8921 5.87142 -9.02728 0.723059 -7.7814 -0.912751C-6.22406 -2.95751 -7.5912 -2.11345 -1.6709 -6.83305C4.24941 -11.5526 10.241 -9.03236 10.7879 -7.62956C11.2254 -6.50732 12.4919 -4.57034 13.0704 -3.74213C16.3278 -0.223236 17.1005 2.77258 17.3977 4.02083Z" fill="#4D6194"/>
<path d="M14.9487 5.31825C15.6525 5.33728 17.5404 5.50847 17.8019 7.00638C17.8019 7.00638 17.8956 6.85273 18.0516 6.69729C18.4807 6.26961 19.2166 7.06582 19.2166 7.06582L18.432 18.2288C18.3781 18.245 17.9697 18.2361 17.9446 18.3908C18.0753 18.4978 18.1164 18.5584 18.218 18.688C18.2366 18.7118 18.2519 18.7501 18.2537 18.7638C18.3131 19.2274 18.0516 19.3463 17.9564 19.3344C17.8613 19.3225 17.6236 18.6924 14.9844 18.9302C12.3452 19.168 11.7152 18.1337 11.4536 17.5987C11.1921 17.0638 11.1445 15.0903 11.1445 14.2819C11.1445 13.4735 12.2987 11.2512 12.4285 10.4302C12.6543 9.00077 11.7523 8.41592 12.2264 6.69728C12.6068 5.31826 14.069 5.29448 14.9487 5.31825Z" fill="#F8BA35"/>
<path d="M16.4705 6.49356C17.0031 6.76937 16.8272 7.20685 16.8272 7.44461C16.8272 7.68238 17.0608 7.676 17.2076 7.60823C17.3622 7.53691 17.6356 7.38236 17.6356 7.38236C17.6356 7.38236 17.6356 7.47746 17.6118 7.56068C17.588 7.6439 17.6475 7.71523 17.7545 7.69145C17.8615 7.66768 18.0517 7.57257 18.1706 7.46558C18.2894 7.35858 18.4083 7.0523 18.4083 7.0523L18.4797 8.57399L16.4705 9.42994C16.4705 9.42994 16.2209 8.70476 15.2698 9.03763C14.3188 9.3705 13.2251 8.49078 13.0111 7.9558C12.165 5.84054 15.8048 6.14881 16.4705 6.49356Z" fill="#1A2332"/>
<path d="M14.3217 8.40333C13.9645 8.4591 13.4814 7.87452 13.4914 7.46268C14.0554 6.88574 14.6873 7.05506 14.9327 7.21184C14.9829 7.86402 14.5463 8.27791 14.3217 8.40333Z" fill="#F8BA35"/>
<path d="M17.1125 14.4943C16.8233 14.1971 16.243 13.3706 16.744 13.0677C17.2552 12.7586 17.4097 14.4943 17.1125 14.4943Z" fill="#1A2332"/>
<path d="M16.4127 15.1684C15.231 13.3905 15.427 12.0819 15.6632 11.516C15.6765 11.4842 15.6389 11.4537 15.6116 11.4748C14.393 12.4211 15.3348 14.1405 16.3649 15.2106C16.3928 15.2395 16.435 15.2019 16.4127 15.1684Z" fill="#1A2332"/>
<path d="M12.7138 17.1811C13.6886 18.037 16.0662 18.1849 16.8865 18.0608C17.3269 17.9942 17.7142 18.2381 17.9446 18.3909C18.0101 18.4343 18.0834 18.4332 18.1229 18.4622C18.4558 18.4336 18.5429 18.2204 18.4795 18.0936C18.4241 18.0936 18.3369 18.0461 18.2893 18.0461C18.2299 18.0461 18.1942 18.0818 18.0278 18.058C17.9212 18.0427 17.7592 17.9185 17.6449 17.8858C17.3121 17.7907 17.1327 17.7529 16.8474 17.7529C16.6572 17.7529 16.2802 17.8202 16.0662 17.8083C15.8523 17.7964 15.2657 17.7553 15.1112 17.7197C14.9566 17.684 14.0977 17.5037 13.7481 17.3685C13.4778 17.264 12.8163 16.9243 12.6024 16.7975C12.6024 16.7975 12.5236 16.988 12.7138 17.1811Z" fill="#1A2332"/>
<path d="M3.97599 4.69566C4.06158 4.92391 4.14242 5.31384 4.52285 5.71804C4.69855 5.90472 5.99698 5.2957 6.08019 4.90057C6.16341 4.50545 6.38929 4.22013 6.59138 4.16351C6.79348 4.10688 7.83964 4.03749 7.69698 3.01035C7.51866 1.72643 6.50817 1.39357 6.18719 1.3579C5.86621 1.32224 5.0723 1.29564 4.8676 1.6404C4.64173 2.02082 4.68927 2.08308 4.17808 2.80826C3.66689 3.53343 3.86899 4.41034 3.97599 4.69566Z" fill="#1A2332"/>
<path d="M5.01056 4.42367C5.01056 4.42367 5.20473 4.42367 5.09378 4.11458C4.98283 3.80549 4.87263 3.46261 4.90116 3.30093C4.93682 3.09884 5.17685 2.95374 5.2482 2.85864C5.31955 2.76353 5.41065 2.56472 5.43842 2.48538C5.47904 2.36931 5.5896 2.38782 5.74056 2.42575C5.87133 2.45859 5.96651 2.48294 6.09728 2.56616C6.16861 2.61155 6.19238 2.59953 6.2756 2.71842C6.34217 2.81352 6.27073 2.9218 6.16373 2.9852L5.65254 3.16353C5.60155 3.1861 5.56199 3.22589 5.53887 3.27269C5.47726 3.3974 5.55417 3.5526 5.65254 3.65094C5.7951 3.79344 6.16373 3.72227 6.16373 3.72227C6.24299 3.69849 6.42765 3.63192 6.53227 3.55584C6.66304 3.46073 6.94835 3.44884 7.16234 3.37751C7.37633 3.30619 7.11479 3.02087 7.05535 2.91388C6.99591 2.80688 6.62945 2.21474 6.4015 2.12926C6.30639 2.09359 6.11618 2.01038 5.86653 2.01038C5.61688 2.01038 5.35534 2.01038 5.16513 2.15303C5.08006 2.21683 5.01302 2.34324 4.9298 2.52157C4.84659 2.69989 4.62542 2.96859 4.48276 3.08747C4.3401 3.20635 4.58259 3.84115 4.64203 4.11458C4.68958 4.33332 4.90753 4.41178 5.01056 4.42367Z" fill="#F8BA35"/>
<ellipse cx="14.4681" cy="7.5562" rx="0.205822" ry="0.388775" transform="rotate(7.92931 14.4681 7.5562)" fill="#1A2332"/>
</g>
</g>
<mask id="mask2_319_248" style="mask-type:alpha" maskUnits="userSpaceOnUse" x="116" y="0" width="31" height="24">
<path d="M146.121 11.8955C146.121 13.4214 145.953 14.7797 145.618 15.9704C145.283 17.1496 144.809 18.1784 144.196 19.057C143.595 19.9356 142.866 20.6812 142.011 21.2939C141.167 21.9066 140.225 22.3979 139.184 22.7678C138.144 23.1378 137.022 23.4094 135.82 23.5828C134.618 23.7447 133.363 23.8256 132.057 23.8256H116.935V0H132.022C133.329 0 134.583 0.0867016 135.785 0.260105C136.988 0.421948 138.109 0.687832 139.15 1.05776C140.202 1.42769 141.155 1.91899 142.011 2.53169C142.866 3.13282 143.595 3.87845 144.196 4.76859C144.809 5.64716 145.283 6.67602 145.618 7.85516C145.953 9.0343 146.121 10.3811 146.121 11.8955Z" fill="#262626"/>
</mask>
<g mask="url(#mask2_319_248)">
<path d="M146.121 11.8955C146.121 13.4214 145.953 14.7797 145.618 15.9704C145.283 17.1496 144.809 18.1784 144.196 19.057C143.595 19.9356 142.866 20.6812 142.011 21.2939C141.167 21.9066 140.225 22.3979 139.184 22.7678C138.144 23.1378 137.022 23.4094 135.82 23.5828C134.618 23.7447 133.363 23.8256 132.057 23.8256H116.935V0H132.022C133.329 0 134.583 0.0867016 135.785 0.260105C136.988 0.421948 138.109 0.687832 139.15 1.05776C140.202 1.42769 141.155 1.91899 142.011 2.53169C142.866 3.13282 143.595 3.87845 144.196 4.76859C144.809 5.64716 145.283 6.67602 145.618 7.85516C145.953 9.0343 146.121 10.3811 146.121 11.8955ZM139.635 11.8955C139.635 10.751 139.485 9.75682 139.184 8.91292C138.895 8.06903 138.421 7.37541 137.762 6.83208C137.115 6.27719 136.265 5.86681 135.213 5.60092C134.161 5.32348 132.878 5.18475 131.363 5.18475H123.369V18.6408H131.363C132.878 18.6408 134.161 18.5079 135.213 18.242C136.265 17.9646 137.115 17.5484 137.762 16.9935C138.421 16.4271 138.895 15.7219 139.184 14.878C139.485 14.0341 139.635 13.0399 139.635 11.8955Z" fill="#4D6194"/>
</g>
</svg>
