<svg width="156" height="24" viewBox="0 0 156 24" fill="none" xmlns="http://www.w3.org/2000/svg">
<path d="M149.566 23.8256V0H156V23.8256H149.566Z" fill="white"/>
<path d="M52.8771 0L58.9641 16.5427L65.5539 0H72.2305L62.6579 23.8256H55.5131L49.2874 7.80314L43.079 23.8256H35.9342L26.3442 0H33.0382L39.4893 16.1959L45.715 0H52.8771Z" fill="white"/>
<path d="M106.119 23.8256L90.0431 7.45633V23.8256H83.6093V0H90.598L106.691 16.4386V0H113.09V23.8256H106.119Z" fill="white"/>
<path d="M74.5671 23.8256V0H81.0009V23.8256H74.5671Z" fill="white"/>
<mask id="mask0_319_355" style="mask-type:alpha" maskUnits="userSpaceOnUse" x="0" y="0" width="28" height="24">
<path d="M27.1745 17.2536C27.1745 18.1784 27.0531 18.9819 26.8103 19.6639C26.5676 20.346 26.2265 20.9355 25.7872 21.4326C25.3594 21.9182 24.8392 22.317 24.2264 22.6291C23.6252 22.9297 22.9547 23.1724 22.2148 23.3574C21.4864 23.5308 20.706 23.6522 19.8736 23.7215C19.0412 23.7909 18.1799 23.8256 17.2897 23.8256H0V0H16.9776C17.6597 0 18.3418 0.0289005 19.0239 0.0867016C19.7176 0.144503 20.3765 0.254325 21.0009 0.416167C21.6252 0.56645 22.2032 0.780314 22.735 1.05776C23.2784 1.3352 23.7466 1.69935 24.1397 2.1502C24.5443 2.60105 24.8565 3.14438 25.0762 3.78019C25.3074 4.416 25.423 5.16741 25.423 6.03443C25.423 7.5835 25.0415 8.81466 24.2784 9.72791C23.5154 10.6296 22.313 11.2307 20.6714 11.5313C21.8275 11.6122 22.816 11.7914 23.6368 12.0689C24.4692 12.3347 25.1455 12.7047 25.6658 13.1786C26.186 13.641 26.5676 14.2133 26.8103 14.8953C27.0531 15.5658 27.1745 16.3519 27.1745 17.2536Z" fill="#262626"/>
</mask>
<g mask="url(#mask0_319_355)">
<path d="M27.1745 17.2536C27.1745 18.1784 27.0531 18.9819 26.8103 19.6639C26.5676 20.346 26.2265 20.9355 25.7872 21.4326C25.3594 21.9182 24.8392 22.317 24.2264 22.6291C23.6252 22.9297 22.9547 23.1724 22.2148 23.3574C21.4864 23.5308 20.706 23.6522 19.8736 23.7215C19.0412 23.7909 18.1799 23.8256 17.2897 23.8256H0V0H16.9776C17.6597 0 18.3418 0.0289005 19.0239 0.0867016C19.7176 0.144503 20.3765 0.254325 21.0009 0.416167C21.6252 0.56645 22.2032 0.780314 22.735 1.05776C23.2784 1.3352 23.7466 1.69935 24.1397 2.1502C24.5443 2.60105 24.8565 3.14438 25.0762 3.78019C25.3074 4.416 25.423 5.16741 25.423 6.03443C25.423 7.5835 25.0415 8.81466 24.2784 9.72791C23.5154 10.6296 22.313 11.2307 20.6714 11.5313C21.8275 11.6122 22.816 11.7914 23.6368 12.0689C24.4692 12.3347 25.1455 12.7047 25.6658 13.1786C26.186 13.641 26.5676 14.2133 26.8103 14.8953C27.0531 15.5658 27.1745 16.3519 27.1745 17.2536Z" fill="#F8BA35"/>
<mask id="mask1_319_355" style="mask-type:alpha" maskUnits="userSpaceOnUse" x="-19" y="-11" width="41" height="38">
<path d="M17.3978 4.02091C17.6355 5.01952 18.1784 6.244 18.4202 6.73141C18.4202 7.38526 18.123 7.69435 17.7663 8.01533C17.4097 8.33631 16.3397 8.49086 15.995 9.37058C15.7192 10.0744 16.1099 11.0349 16.3397 11.4272C16.9864 11.7126 17.3463 12.2039 17.4453 12.414C17.7402 12.9751 17.7822 13.8524 17.7663 14.221C18.2989 15.4668 18.2101 17.2762 18.0992 18.0252C18.012 18.1322 17.859 18.358 17.9446 18.4056C18.0302 18.4531 18.1784 18.6473 18.2418 18.7385L18.9432 19.1545C19.8277 20.2102 20.6432 23.9138 20.9404 25.6336H-18.2429C-18.1637 24.9084 -17.9671 23.1918 -17.8149 22.1266C-17.6247 20.7951 -16.5905 18.2035 -16.4003 17.7398C-16.21 17.2762 -13.6541 12.6755 -13.3688 12.0216C-13.1405 11.4986 -12.1403 9.2834 -11.6688 8.24121C-10.8921 5.8715 -9.02722 0.723137 -7.78134 -0.912674C-6.22399 -2.95744 -7.59113 -2.11338 -1.67083 -6.83297C4.24947 -11.5526 10.2411 -9.03228 10.788 -7.62948C11.2254 -6.50724 12.4919 -4.57026 13.0705 -3.74205C16.3278 -0.223159 17.1006 2.77266 17.3978 4.02091Z" fill="#C4C4C4" stroke="black"/>
</mask>
<g mask="url(#mask1_319_355)">
<path d="M17.3978 4.02091C17.6355 5.01952 18.1784 6.244 18.4202 6.73141C18.4202 7.38526 18.123 7.69435 17.7663 8.01533C17.4097 8.33631 16.3397 8.49086 15.995 9.37058C15.7192 10.0744 16.1099 11.0349 16.3397 11.4272C16.9864 11.7126 17.3463 12.2039 17.4453 12.414C17.7402 12.9751 17.7822 13.8524 17.7663 14.221C18.2989 15.4668 18.2101 17.2762 18.0992 18.0252C18.012 18.1322 17.859 18.358 17.9446 18.4056C18.0302 18.4531 18.1784 18.6473 18.2418 18.7385C15.1024 21.0876 13.5103 21.1727 12.5355 21.7909L12.5461 21.8035C13.4272 22.8551 14.3199 23.9206 14.6159 25.6336H-18.2429C-18.1637 24.9084 -17.9671 23.1918 -17.8149 22.1266C-17.6247 20.7951 -16.5905 18.2035 -16.4003 17.7398C-16.21 17.2762 -13.6541 12.6755 -13.3688 12.0216C-13.1405 11.4986 -12.1403 9.2834 -11.6688 8.24121C-10.8921 5.8715 -9.02722 0.723137 -7.78134 -0.912674C-6.22399 -2.95744 -7.59113 -2.11338 -1.67083 -6.83297C4.24947 -11.5526 10.2411 -9.03228 10.788 -7.62948C11.2254 -6.50724 12.4919 -4.57026 13.0705 -3.74205C16.3278 -0.223159 17.1006 2.77266 17.3978 4.02091Z" fill="#1A2332"/>
<path d="M17.3977 4.02091C17.6355 5.01952 18.1784 6.244 18.4201 6.73141C18.4201 7.38526 18.1229 7.69435 17.7662 8.01533C17.4096 8.33631 16.3397 8.49086 15.9949 9.37058C15.7191 10.0744 16.1098 11.0349 16.3397 11.4272C16.9864 11.7125 17.3462 12.2039 17.4453 12.4139C17.7401 12.9751 17.7821 13.8524 17.7662 14.2209C18.2988 15.4668 18.2101 17.2762 18.0991 18.0252C18.0119 18.1322 17.859 18.358 17.9446 18.4056C18.0302 18.4531 18.1784 18.6473 18.2418 18.7384C18.2418 18.7384 18.2893 18.9762 18.1942 19.1426C18.0991 19.3091 17.9446 19.3091 17.9446 19.3091C16.6725 19.8084 17.1956 20.3433 14.0571 21.4371L10.1697 22.4713C8.0536 22.4713 6.15152 20.3434 5.40254 18.7384C4.26753 16.3063 2.84839 14.7542 1.02774 12.9965C0.076684 12.0783 -2.49119 10.7825 -3.73942 10.4881C-5.87052 9.98546 -11.6688 11.1985 -13.9038 13.065C-13.9038 13.065 -11.9012 8.75481 -11.6688 8.24121C-10.8921 5.8715 -9.02728 0.723135 -7.7814 -0.912675C-6.22406 -2.95744 -7.5912 -2.11338 -1.6709 -6.83298C4.24941 -11.5526 10.241 -9.03228 10.7879 -7.62948C11.2254 -6.50724 12.4919 -4.57026 13.0704 -3.74205C16.3278 -0.22316 17.1005 2.77265 17.3977 4.02091Z" fill="white"/>
<path d="M14.9487 5.31825C15.6525 5.33727 17.5404 5.50846 17.8019 7.00637C17.8019 7.00637 17.8956 6.85272 18.0516 6.69728C18.4807 6.2696 19.2166 7.06581 19.2166 7.06581L18.432 18.2288C18.3781 18.2449 17.9697 18.2361 17.9446 18.3908C18.0753 18.4978 18.1164 18.5584 18.218 18.688C18.2366 18.7118 18.2519 18.7501 18.2537 18.7638C18.3131 19.2274 18.0516 19.3463 17.9564 19.3344C17.8613 19.3225 17.6236 18.6924 14.9844 18.9302C12.3452 19.168 11.7152 18.1337 11.4536 17.5987C11.1921 17.0638 11.1445 15.0903 11.1445 14.2819C11.1445 13.4735 12.2987 11.2512 12.4285 10.4302C12.6543 9.00076 11.7523 8.41591 12.2264 6.69728C12.6068 5.31825 14.069 5.29447 14.9487 5.31825Z" fill="#4D6194"/>
<path d="M16.4705 6.49355C17.0031 6.76936 16.8272 7.20684 16.8272 7.4446C16.8272 7.68237 17.0608 7.67599 17.2076 7.60822C17.3622 7.53689 17.6356 7.38235 17.6356 7.38235C17.6356 7.38235 17.6356 7.47745 17.6118 7.56067C17.588 7.64389 17.6475 7.71522 17.7545 7.69144C17.8615 7.66766 18.0517 7.57256 18.1706 7.46557C18.2894 7.35857 18.4083 7.05229 18.4083 7.05229L18.4797 8.57398L16.4705 9.42993C16.4705 9.42993 16.2209 8.70475 15.2698 9.03762C14.3188 9.37049 13.2251 8.49076 13.0111 7.95579C12.165 5.84053 15.8048 6.1488 16.4705 6.49355Z" fill="#1A2332"/>
<path d="M14.3217 8.40336C13.9645 8.45913 13.4814 7.87455 13.4914 7.46271C14.0554 6.88577 14.6873 7.05509 14.9327 7.21187C14.9829 7.86405 14.5463 8.27794 14.3217 8.40336Z" fill="#4D6194"/>
<path d="M17.1125 14.4943C16.8233 14.1971 16.243 13.3707 16.744 13.0678C17.2552 12.7587 17.4097 14.4943 17.1125 14.4943Z" fill="#1A2332"/>
<path d="M16.4127 15.1684C15.231 13.3906 15.427 12.0819 15.6632 11.5161C15.6765 11.4843 15.6389 11.4538 15.6116 11.4749C14.393 12.4211 15.3348 14.1406 16.3649 15.2106C16.3928 15.2396 16.435 15.2019 16.4127 15.1684Z" fill="#1A2332"/>
<path d="M12.7138 17.1811C13.6886 18.0371 16.0662 18.1849 16.8865 18.0609C17.3269 17.9943 17.7142 18.2382 17.9446 18.3909C18.0101 18.4343 18.0834 18.4333 18.1229 18.4623C18.4558 18.4337 18.5429 18.2205 18.4795 18.0937C18.4241 18.0937 18.3369 18.0462 18.2893 18.0462C18.2299 18.0462 18.1942 18.0818 18.0278 18.058C17.9212 18.0428 17.7592 17.9185 17.6449 17.8859C17.3121 17.7908 17.1327 17.753 16.8474 17.753C16.6572 17.753 16.2802 17.8203 16.0662 17.8084C15.8523 17.7965 15.2657 17.7554 15.1112 17.7197C14.9566 17.6841 14.0977 17.5037 13.7481 17.3685C13.4778 17.264 12.8163 16.9244 12.6024 16.7976C12.6024 16.7976 12.5236 16.9881 12.7138 17.1811Z" fill="#1A2332"/>
<path d="M3.97599 4.69567C4.06158 4.92392 4.14242 5.31386 4.52285 5.71805C4.69855 5.90474 5.99698 5.29571 6.08019 4.90059C6.16341 4.50546 6.38929 4.22014 6.59138 4.16352C6.79348 4.1069 7.83964 4.03751 7.69698 3.01037C7.51866 1.72645 6.50817 1.39358 6.18719 1.35792C5.86621 1.32225 5.0723 1.29566 4.8676 1.64042C4.64173 2.02084 4.68927 2.08309 4.17808 2.80827C3.66689 3.53345 3.86899 4.41036 3.97599 4.69567Z" fill="#1A2332"/>
<path d="M5.01056 4.42367C5.01056 4.42367 5.20473 4.42367 5.09378 4.11458C4.98283 3.80549 4.87263 3.46261 4.90116 3.30093C4.93682 3.09884 5.17685 2.95374 5.2482 2.85864C5.31955 2.76353 5.41065 2.56472 5.43842 2.48538C5.47904 2.36931 5.5896 2.38782 5.74056 2.42575C5.87133 2.45859 5.96651 2.48294 6.09728 2.56616C6.16861 2.61155 6.19238 2.59953 6.2756 2.71842C6.34217 2.81352 6.27073 2.9218 6.16373 2.9852L5.65254 3.16353C5.60155 3.1861 5.56199 3.22589 5.53887 3.27269C5.47726 3.3974 5.55417 3.5526 5.65254 3.65094C5.7951 3.79344 6.16373 3.72227 6.16373 3.72227C6.24299 3.69849 6.42765 3.63192 6.53227 3.55584C6.66304 3.46073 6.94835 3.44884 7.16234 3.37751C7.37633 3.30619 7.11479 3.02087 7.05535 2.91388C6.99591 2.80688 6.62945 2.21474 6.4015 2.12926C6.30639 2.09359 6.11618 2.01038 5.86653 2.01038C5.61688 2.01038 5.35534 2.01038 5.16513 2.15303C5.08006 2.21683 5.01302 2.34324 4.9298 2.52157C4.84659 2.69989 4.62542 2.96859 4.48276 3.08747C4.3401 3.20635 4.58259 3.84115 4.64203 4.11458C4.68958 4.33332 4.90753 4.41178 5.01056 4.42367Z" fill="#4D6194"/>
<ellipse cx="14.4681" cy="7.55627" rx="0.205822" ry="0.388775" transform="rotate(7.92931 14.4681 7.55627)" fill="#1A2332"/>
</g>
</g>
<mask id="mask2_319_355" style="mask-type:alpha" maskUnits="userSpaceOnUse" x="116" y="0" width="31" height="24">
<path d="M146.121 11.8955C146.121 13.4214 145.953 14.7797 145.618 15.9704C145.283 17.1496 144.809 18.1784 144.196 19.057C143.595 19.9356 142.866 20.6812 142.011 21.2939C141.167 21.9066 140.225 22.3979 139.184 22.7678C138.144 23.1378 137.022 23.4094 135.82 23.5828C134.618 23.7447 133.363 23.8256 132.057 23.8256H116.935V0H132.022C133.329 0 134.583 0.0867016 135.785 0.260105C136.988 0.421948 138.109 0.687832 139.15 1.05776C140.202 1.42769 141.155 1.91899 142.011 2.53169C142.866 3.13282 143.595 3.87845 144.196 4.76859C144.809 5.64716 145.283 6.67602 145.618 7.85516C145.953 9.0343 146.121 10.3811 146.121 11.8955Z" fill="#262626"/>
</mask>
<g mask="url(#mask2_319_355)">
<path d="M146.121 11.8955C146.121 13.4214 145.953 14.7797 145.618 15.9704C145.283 17.1496 144.809 18.1784 144.196 19.057C143.595 19.9356 142.866 20.6812 142.011 21.2939C141.167 21.9066 140.225 22.3979 139.184 22.7678C138.144 23.1378 137.022 23.4094 135.82 23.5828C134.618 23.7447 133.363 23.8256 132.057 23.8256H116.935V0H132.022C133.329 0 134.583 0.0867016 135.785 0.260105C136.988 0.421948 138.109 0.687832 139.15 1.05776C140.202 1.42769 141.155 1.91899 142.011 2.53169C142.866 3.13282 143.595 3.87845 144.196 4.76859C144.809 5.64716 145.283 6.67602 145.618 7.85516C145.953 9.0343 146.121 10.3811 146.121 11.8955ZM139.635 11.8955C139.635 10.751 139.485 9.75682 139.184 8.91292C138.895 8.06903 138.421 7.37541 137.762 6.83208C137.115 6.27719 136.265 5.86681 135.213 5.60092C134.161 5.32348 132.878 5.18475 131.363 5.18475H123.369V18.6408H131.363C132.878 18.6408 134.161 18.5079 135.213 18.242C136.265 17.9646 137.115 17.5484 137.762 16.9935C138.421 16.4271 138.895 15.7219 139.184 14.878C139.485 14.0341 139.635 13.0399 139.635 11.8955Z" fill="white"/>
</g>
</svg>
